<svg width="29" height="21" viewBox="0 0 29 21" fill="none" xmlns="http://www.w3.org/2000/svg">
<path d="M25.1861 11.3259C26.2679 11.8266 27.5515 12.3272 28.67 13.1319C29 13.3644 28.9633 13.7935 28.725 14.1333C28.4866 14.4909 28.1015 14.5982 27.7348 14.4372C26.6163 13.9366 25.5161 13.3822 24.4343 12.81C24.1043 12.6312 23.9209 12.2736 24.1043 11.8623C24.2876 11.4689 24.5627 11.2722 25.1861 11.3259Z" fill="#A6A6A6"/>
<path d="M24.6727 1.11563C24.0859 2.22428 23.5908 3.49385 22.7474 4.56673C22.509 4.8886 22.0506 4.85284 21.7206 4.62038C21.4088 4.38792 21.2072 4.04817 21.4089 3.65479C21.9589 2.5819 22.509 1.49114 23.0958 0.43614C23.2975 0.0963937 23.6825 -0.0287757 24.0859 0.114275C24.4526 0.293089 24.6543 0.597072 24.6727 1.11563Z" fill="#A6A6A6"/>
<path d="M29 6.60521C28.9633 7.01648 28.725 7.30258 28.2849 7.44563C27.2581 7.78538 26.2312 8.12512 25.2044 8.44699C24.6727 8.60792 24.2143 8.42911 24.0126 7.91055C23.8109 7.35623 24.1226 6.98072 24.6543 6.8019C25.6812 6.46216 26.708 6.12241 27.7531 5.83631C28.4499 5.6575 28.9633 5.99724 29 6.60521Z" fill="#A6A6A6"/>
<path d="M24.0859 16.2969C22.3623 11.2007 20.6754 6.10453 19.0068 1.00834C18.7134 0.114275 18.2184 -0.189709 17.3199 0.114275C16.3664 0.436139 15.3946 0.722241 14.4228 1.04411C13.7444 1.25868 13.2493 1.58055 13.5427 2.40309C13.671 2.76072 13.4876 2.95741 13.2126 3.13623C9.10532 5.67538 5.82315 9.48411 0.835726 10.6464C0.0656087 10.8252 -0.154425 11.308 0.102281 12.0769C0.780717 14.0617 1.44082 16.0466 2.08258 18.0493C2.3943 19.0328 2.94438 19.2473 3.9712 18.9255C5.30974 18.4784 6.6116 17.8526 8.11516 17.9241C8.72026 17.942 9.01363 18.1029 9.27034 18.6751C9.94878 20.1235 11.1406 20.9818 12.8092 20.9997C14.4778 21.0176 15.7247 20.2129 16.4398 18.7824C16.7515 18.1387 17.0815 17.8526 17.8333 18.0314C18.3651 17.8705 18.7501 18.0135 18.9885 18.6215C19.1902 19.1579 19.7036 19.1937 20.2353 19.0149C21.2255 18.6751 22.2156 18.3175 23.2425 18.0493C24.2693 17.7632 24.3976 17.2267 24.0859 16.2969ZM5.34641 16.9764L4.13623 17.3698C3.89786 17.4413 3.64115 17.3161 3.54947 17.0837L1.93589 12.2557C1.86255 12.0233 1.9909 11.7729 2.22927 11.6835L3.43945 11.2901C3.67782 11.2186 3.93453 11.3438 4.02621 11.5762L5.63979 16.4042C5.71313 16.6545 5.58478 16.9049 5.34641 16.9764ZM13.1026 19.2295C12.1858 19.3367 11.434 18.9433 10.8656 17.9778C12.2225 17.9778 13.451 17.9778 14.7528 17.9778C14.5328 18.8718 13.836 19.1579 13.1026 19.2295ZM8.09683 16.2075C7.6751 16.2075 7.52841 16.0466 7.40006 15.6711C6.92332 14.169 6.39157 12.667 5.89649 11.165C5.78648 10.8252 5.80481 10.557 6.13486 10.3067C8.81194 8.41123 11.4707 6.49792 14.2211 4.53097C15.523 8.46487 16.8065 12.2915 18.1083 16.1896C14.7345 16.1896 11.4157 16.1896 8.09683 16.2075ZM21.8489 16.8155L20.8588 17.1373C20.6021 17.2089 20.3454 17.0837 20.2537 16.8333L15.5413 2.79648C15.4679 2.54614 15.5963 2.2958 15.853 2.20639L16.8432 1.88453C17.0999 1.813 17.3566 1.93817 17.4482 2.18851L22.1606 16.2254C22.234 16.4757 22.0873 16.7439 21.8489 16.8155Z" fill="#A6A6A6"/>
</svg>
