<svg width="1440" height="897" viewBox="0 0 1440 897" fill="none" xmlns="http://www.w3.org/2000/svg">
<path d="M433 833.336H488V856.92H542V872.643H597H651V888.365H706V856.92H760V872.643H815V896.226H869H924V849.059H978H1033V872.643V525V587.89H978V532.861H924V611.474H869V635.058H815V532.861H760V540.723H706V635.058H651V603.613H597V556.445H542V548.584H488V556.445H433V833.336Z" fill="#F48E1E" fill-opacity="0.11"/>
<path d="M433 833.724H488H542H597H651H706H760H815H869H924H978H1033V643.306V619.723H978H924V666.89H869H815V643.306H760V627.584H706V659.029H651V643.306H597H542V627.584H488V604H433V833.724Z" fill="#EC6A00" fill-opacity="0.35"/>
<path fill-rule="evenodd" clip-rule="evenodd" d="M644.604 218.926C655.994 223.559 664 234.752 664 247.824C664 265.007 650.073 279 632.892 279H527.108C509.891 279 496 265.042 496 247.824C496 235.036 503.713 224.015 514.741 219.213C514.692 218.364 514.667 217.508 514.667 216.647C514.667 192.541 534.167 173 558.222 173C574.479 173 588.656 181.926 596.139 195.153C600.662 192.945 605.742 191.706 611.111 191.706C627.592 191.706 641.351 203.38 644.604 218.926Z" fill="#FEE3AE" fill-opacity="0.47"/>
<path fill-rule="evenodd" clip-rule="evenodd" d="M983.718 151.858C996.802 157.19 1006 170.073 1006 185.118C1006 204.895 990 221 970.263 221H848.737C828.958 221 813 204.935 813 185.118C813 170.4 821.861 157.715 834.529 152.189C834.473 151.211 834.444 150.227 834.444 149.235C834.444 121.491 856.847 99 884.481 99C903.158 99 919.444 109.273 928.041 124.497C933.236 121.955 939.073 120.529 945.241 120.529C964.174 120.529 979.981 133.966 983.718 151.858Z" fill="#FFF2D9"/>
<path d="M1633 833.336H1578V856.92H1524V872.643H1469H1415V888.365H1360V856.92H1306V872.643H1251V896.226H1197H1142V849.059H1088H1033V872.643V525V587.89H1088V532.861H1142V611.474H1197V635.058H1251V532.861H1306V540.723H1360V635.058H1415V603.613H1469V556.445H1524V548.584H1578V556.445H1633V833.336Z" fill="#F48E1E" fill-opacity="0.11"/>
<path d="M1633 833.724H1578H1524H1469H1415H1360H1306H1251H1197H1142H1088H1033V643.306V619.723H1088H1142V666.89H1197H1251V643.306H1306V627.584H1360V659.029H1415V643.306H1469H1524V627.584H1578V604H1633V833.724Z" fill="#EC6A00" fill-opacity="0.35"/>
<path d="M433 833.336H378V856.92H324V872.643H269H215V888.365H160V856.92H106V872.643H51V896.226H-3H-58V849.059H-112H-167V872.643V525V587.89H-112V532.861H-58V611.474H-3V635.058H51V532.861H106V540.723H160V635.058H215V603.613H269V556.445H324V548.584H378V556.445H433V833.336Z" fill="#F48E1E" fill-opacity="0.11"/>
<path d="M433 833.724H378H324H269H215H160H106H51H-3H-58H-112H-167V643.306V619.723H-112H-58V666.89H-3H51V643.306H106V627.584H160V659.029H215V643.306H269H324V627.584H378V604H433V833.724Z" fill="#EC6A00" fill-opacity="0.35"/>
<path fill-rule="evenodd" clip-rule="evenodd" d="M1417.4 218.926C1406.01 223.559 1398 234.752 1398 247.824C1398 265.007 1411.93 279 1429.11 279H1534.89C1552.11 279 1566 265.042 1566 247.824C1566 235.036 1558.29 224.015 1547.26 219.213C1547.31 218.364 1547.33 217.508 1547.33 216.647C1547.33 192.541 1527.83 173 1503.78 173C1487.52 173 1473.34 181.926 1465.86 195.153C1461.34 192.945 1456.26 191.706 1450.89 191.706C1434.41 191.706 1420.65 203.38 1417.4 218.926Z" fill="#FEE3AE" fill-opacity="0.47"/>
<path fill-rule="evenodd" clip-rule="evenodd" d="M213.396 218.926C202.006 223.559 194 234.752 194 247.824C194 265.007 207.927 279 225.108 279H330.892C348.109 279 362 265.042 362 247.824C362 235.036 354.287 224.015 343.259 219.213C343.308 218.364 343.333 217.508 343.333 216.647C343.333 192.541 323.833 173 299.778 173C283.521 173 269.344 181.926 261.861 195.153C257.338 192.945 252.258 191.706 246.889 191.706C230.408 191.706 216.649 203.38 213.396 218.926Z" fill="#FEE3AE" fill-opacity="0.47"/>
<path fill-rule="evenodd" clip-rule="evenodd" d="M1227.28 52.8584C1214.2 58.1905 1205 71.0728 1205 86.1176C1205 105.895 1221 122 1240.74 122H1362.26C1382.04 122 1398 105.935 1398 86.1176C1398 71.3996 1389.14 58.7151 1376.47 53.1887C1376.53 52.2115 1376.56 51.2267 1376.56 50.2353C1376.56 22.4911 1354.15 0 1326.52 0C1307.84 0 1291.56 10.2727 1282.96 25.4971C1277.76 22.9555 1271.93 21.5294 1265.76 21.5294C1246.83 21.5294 1231.02 34.9656 1227.28 52.8584Z" fill="#FFF2D9"/>
<path fill-rule="evenodd" clip-rule="evenodd" d="M-113.718 134.858C-126.802 140.19 -136 153.073 -136 168.118C-136 187.895 -120 204 -100.263 204H21.2633C41.0418 204 57 187.935 57 168.118C57 153.4 48.1387 140.715 35.4705 135.189C35.5269 134.211 35.5556 133.227 35.5556 132.235C35.5556 104.491 13.1532 82 -14.4815 82C-33.1579 82 -49.4444 92.2727 -58.0409 107.497C-63.2363 104.955 -69.0726 103.529 -75.2407 103.529C-94.1737 103.529 -109.981 116.966 -113.718 134.858Z" fill="#FFF2D9"/>
</svg>
