<svg width="1440" height="955" viewBox="0 0 1440 955" fill="none" xmlns="http://www.w3.org/2000/svg">
<path d="M263 891.336H318V914.92H372V930.643H427H481V946.365H536V914.92H590V930.643H645V954.226H699H754V907.059H808H863V930.643V583V645.89H808V590.861H754V669.474H699V693.058H645V590.861H590V598.723H536V693.058H481V661.613H427V614.445H372V606.584H318V614.445H263V891.336Z" fill="#F48E1E" fill-opacity="0.11"/>
<path d="M263 891.724H318H372H427H481H536H590H645H699H754H808H863V701.306V677.723H808H754V724.89H699H645V701.306H590V685.584H536V717.029H481V701.306H427H372V685.584H318V662H263V891.724Z" fill="#EC6A00" fill-opacity="0.35"/>
<path d="M263 891.336H208V914.92H154V930.643H99H45V946.365H-10V914.92H-64V930.643H-119V954.226H-173H-228V907.059H-282H-337V930.643V583V645.89H-282V590.861H-228V669.474H-173V693.058H-119V590.861H-64V598.723H-10V693.058H45V661.613H99V614.445H154V606.584H208V614.445H263V891.336Z" fill="#F48E1E" fill-opacity="0.11"/>
<path d="M263 891.724H208H154H99H45H-10H-64H-119H-173H-228H-282H-337V701.306V677.723H-282H-228V724.89H-173H-119V701.306H-64V685.584H-10V717.029H45V701.306H99H154V685.584H208V662H263V891.724Z" fill="#EC6A00" fill-opacity="0.35"/>
<path d="M1463 891.336H1408V914.92H1354V930.643H1299H1245V946.365H1190V914.92H1136V930.643H1081V954.226H1027H972V907.059H918H863V930.643V583V645.89H918V590.861H972V669.474H1027V693.058H1081V590.861H1136V598.723H1190V693.058H1245V661.613H1299V614.445H1354V606.584H1408V614.445H1463V891.336Z" fill="#F48E1E" fill-opacity="0.11"/>
<path d="M1463 891.724H1408H1354H1299H1245H1190H1136H1081H1027H972H918H863V701.306V677.723H918H972V724.89H1027H1081V701.306H1136V685.584H1190V717.029H1245V701.306H1299H1354V685.584H1408V662H1463V891.724Z" fill="#EC6A00" fill-opacity="0.35"/>
<path fill-rule="evenodd" clip-rule="evenodd" d="M627.604 361.926C638.994 366.559 647 377.752 647 390.824C647 408.007 633.073 422 615.892 422H510.108C492.891 422 479 408.042 479 390.824C479 378.036 486.713 367.015 497.741 362.213C497.692 361.364 497.667 360.508 497.667 359.647C497.667 335.541 517.167 316 541.222 316C557.479 316 571.656 324.926 579.139 338.153C583.662 335.945 588.742 334.706 594.111 334.706C610.592 334.706 624.351 346.38 627.604 361.926Z" fill="#FEE3AE"/>
<path fill-rule="evenodd" clip-rule="evenodd" d="M211.604 95.9261C222.994 100.559 231 111.752 231 124.824C231 142.007 217.073 156 199.892 156H94.1076C76.8911 156 63 142.042 63 124.824C63 112.036 70.7134 101.015 81.7407 96.2131C81.6916 95.3641 81.6667 94.5085 81.6667 93.6471C81.6667 69.5415 101.167 50 125.222 50C141.479 50 155.656 58.9255 163.139 72.1533C167.662 69.9449 172.742 68.7059 178.111 68.7059C194.592 68.7059 208.351 80.3799 211.604 95.9261Z" fill="#FEE3AE"/>
<path fill-rule="evenodd" clip-rule="evenodd" d="M932.718 208.858C945.802 214.19 955 227.073 955 242.118C955 261.895 939 278 919.263 278H797.737C777.958 278 762 261.935 762 242.118C762 227.4 770.861 214.715 783.529 209.189C783.473 208.211 783.444 207.227 783.444 206.235C783.444 178.491 805.847 156 833.481 156C852.158 156 868.444 166.273 877.041 181.497C882.236 178.955 888.073 177.529 894.241 177.529C913.174 177.529 928.981 190.966 932.718 208.858Z" fill="#FEE3AE"/>
<path fill-rule="evenodd" clip-rule="evenodd" d="M1407.72 52.8584C1420.8 58.1905 1430 71.0728 1430 86.1176C1430 105.895 1414 122 1394.26 122H1272.74C1252.96 122 1237 105.935 1237 86.1176C1237 71.3997 1245.86 58.7151 1258.53 53.1887C1258.47 52.2115 1258.44 51.2267 1258.44 50.2353C1258.44 22.4911 1280.85 0 1308.48 0C1327.16 0 1343.44 10.2727 1352.04 25.4971C1357.24 22.9555 1363.07 21.5294 1369.24 21.5294C1388.17 21.5294 1403.98 34.9656 1407.72 52.8584Z" fill="#FEE3AE"/>
</svg>
