<svg width="375" height="667" viewBox="0 0 375 667" fill="none" xmlns="http://www.w3.org/2000/svg">
<g clip-path="url(#clip0)">
<rect width="375" height="667" fill="white"/>
<path d="M-99 771.336H-44V794.92H10V810.643H65H119V826.365H174V794.92H228V810.643H283V834.226H337H392V787.059H446H501V810.643V463V525.89H446V470.861H392V549.474H337V573.058H283V470.861H228V478.723H174V573.058H119V541.613H65V494.445H10V486.584H-44V494.445H-99V771.336Z" fill="#F48E1E" fill-opacity="0.11"/>
<path d="M-96 771.724H-41H13H68H122H177H231H286H340H395H449H504V581.306V557.723H449H395V604.89H340H286V581.306H231V565.584H177V597.029H122V581.306H68H13V565.584H-41V542H-96V771.724Z" fill="#EC6A00" fill-opacity="0.35"/>
<path fill-rule="evenodd" clip-rule="evenodd" d="M105.604 218.926C116.994 223.559 125 234.752 125 247.824C125 265.007 111.073 279 93.8924 279H-11.8924C-29.1089 279 -43 265.042 -43 247.824C-43 235.036 -35.2866 224.015 -24.2593 219.213C-24.3084 218.364 -24.3333 217.508 -24.3333 216.647C-24.3333 192.541 -4.83285 173 19.2222 173C35.4794 173 49.6562 181.926 57.1393 195.153C61.6616 192.945 66.742 191.706 72.1111 191.706C88.5916 191.706 102.351 203.38 105.604 218.926Z" fill="#FEE3AE" fill-opacity="0.47"/>
<path fill-rule="evenodd" clip-rule="evenodd" d="M439.718 72.8584C452.802 78.1905 462 91.0728 462 106.118C462 125.895 446 142 426.263 142H304.737C284.958 142 269 125.935 269 106.118C269 91.3996 277.861 78.7151 290.529 73.1887C290.473 72.2115 290.444 71.2267 290.444 70.2353C290.444 42.4911 312.847 20 340.481 20C359.158 20 375.444 30.2727 384.041 45.4971C389.236 42.9555 395.073 41.5294 401.241 41.5294C420.174 41.5294 435.981 54.9656 439.718 72.8584Z" fill="#FFF2D9"/>
</g>
<defs>
<clipPath id="clip0">
<rect width="375" height="667" fill="white"/>
</clipPath>
</defs>
</svg>
