<svg width="375" height="667" viewBox="0 0 375 667" fill="none" xmlns="http://www.w3.org/2000/svg">
<g clip-path="url(#clip0)">
<rect width="375" height="667" fill="white"/>
<path d="M-99 771.336H-44V794.92H10V810.643H65H119V826.365H174V794.92H228V810.643H283V834.226H337H392V787.059H446H501V810.643V463V525.89H446V470.861H392V549.474H337V573.058H283V470.861H228V478.723H174V573.058H119V541.613H65V494.445H10V486.584H-44V494.445H-99V771.336Z" fill="#F48E1E" fill-opacity="0.11"/>
<path d="M-96 771.724H-41H13H68H122H177H231H286H340H395H449H504V581.306V557.723H449H395V604.89H340H286V581.306H231V565.584H177V597.029H122V581.306H68H13V565.584H-41V542H-96V771.724Z" fill="#EC6A00" fill-opacity="0.35"/>
<circle cx="191" cy="609" r="26" fill="#FF8A00"/>
<path d="M202.839 609.054L185.704 621.081L185.798 596.893L202.839 609.054Z" fill="#FEE3AE"/>
<path fill-rule="evenodd" clip-rule="evenodd" d="M95.6045 240.926C106.994 245.559 115 256.752 115 269.824C115 287.007 101.073 301 83.8924 301H-21.8924C-39.1089 301 -53 287.042 -53 269.824C-53 257.036 -45.2866 246.015 -34.2593 241.213C-34.3084 240.364 -34.3333 239.508 -34.3333 238.647C-34.3333 214.541 -14.8328 195 9.22222 195C25.4794 195 39.6562 203.926 47.1393 217.153C51.6616 214.945 56.742 213.706 62.1111 213.706C78.5916 213.706 92.3513 225.38 95.6045 240.926Z" fill="#FEE3AE"/>
<path fill-rule="evenodd" clip-rule="evenodd" d="M400.718 87.8584C413.802 93.1905 423 106.073 423 121.118C423 140.895 407 157 387.263 157H265.737C245.958 157 230 140.935 230 121.118C230 106.4 238.861 93.7151 251.529 88.1887C251.473 87.2115 251.444 86.2267 251.444 85.2353C251.444 57.4911 273.847 35 301.481 35C320.158 35 336.444 45.2727 345.041 60.4971C350.236 57.9555 356.073 56.5294 362.241 56.5294C381.174 56.5294 396.981 69.9656 400.718 87.8584Z" fill="#FEE3AE"/>
<path d="M197.031 248.594V286.375C197.031 291.25 196.531 295.594 195.531 299.406C194.531 303.219 192.906 306.438 190.656 309.062C188.438 311.688 185.531 313.688 181.938 315.062C178.375 316.406 174.016 317.078 168.859 317.078C163.609 317.078 159.188 316.375 155.594 314.969C152.031 313.562 149.141 311.531 146.922 308.875C144.734 306.219 143.156 303 142.188 299.219C141.25 295.406 140.781 291.125 140.781 286.375V248.594H154.094V287.969C154.094 290.938 154.344 293.625 154.844 296.031C155.375 298.406 156.219 300.438 157.375 302.125C158.562 303.781 160.094 305.062 161.969 305.969C163.844 306.875 166.141 307.328 168.859 307.328C171.641 307.328 173.984 306.875 175.891 305.969C177.797 305.062 179.328 303.766 180.484 302.078C181.641 300.391 182.469 298.359 182.969 295.984C183.469 293.578 183.719 290.906 183.719 287.969V248.594H197.031Z" fill="#FFD46E"/>
<path d="M230.594 248.594C233.875 248.594 236.797 249.047 239.359 249.953C241.953 250.828 244.141 252.125 245.922 253.844C247.703 255.562 249.062 257.688 250 260.219C250.938 262.75 251.406 265.656 251.406 268.938C251.406 272.5 250.828 275.625 249.672 278.312C248.516 280.969 246.859 283.188 244.703 284.969C242.547 286.75 239.938 288.094 236.875 289C233.812 289.906 230.391 290.359 226.609 290.359C224.859 290.359 223.203 290.312 221.641 290.219C220.109 290.094 218.75 289.969 217.562 289.844V316H204.484V248.594H230.594ZM217.562 280.891C218.562 281.047 219.547 281.172 220.516 281.266C221.516 281.328 222.484 281.359 223.422 281.359C225.828 281.359 227.938 281.156 229.75 280.75C231.594 280.344 233.125 279.672 234.344 278.734C235.594 277.797 236.531 276.578 237.156 275.078C237.781 273.578 238.094 271.719 238.094 269.5C238.094 267.312 237.859 265.469 237.391 263.969C236.922 262.438 236.172 261.203 235.141 260.266C234.109 259.328 232.781 258.656 231.156 258.25C229.531 257.812 227.562 257.594 225.25 257.594H217.562V280.891Z" fill="#FFD46E"/>
<line x1="88" y1="356.305" x2="107" y2="356.305" stroke="#FEE3AE"/>
<line x1="125" y1="356.305" x2="146" y2="356.305" stroke="#FEE3AE"/>
<line x1="106" y1="337.278" x2="126" y2="337.278" stroke="#FEE3AE"/>
<line x1="145" y1="324.156" x2="187" y2="324.156" stroke="#FEE3AE"/>
<line x1="106.5" y1="356.805" x2="106.5" y2="337.122" stroke="#FEE3AE"/>
<line x1="125.5" y1="356.805" x2="125.5" y2="337.122" stroke="#FEE3AE"/>
<line x1="248" y1="356.305" x2="258" y2="356.305" stroke="#FEE3AE"/>
<line x1="278" y1="356.305" x2="299" y2="356.305" stroke="#FEE3AE"/>
<line x1="257" y1="337.934" x2="279" y2="337.934" stroke="#FEE3AE"/>
<line x1="257.5" y1="356.805" x2="257.5" y2="337.778" stroke="#FEE3AE"/>
<line x1="278.5" y1="356.805" x2="278.5" y2="337.778" stroke="#FEE3AE"/>
<line x1="187" y1="356.305" x2="207" y2="356.305" stroke="#FEE3AE"/>
<line x1="145.5" y1="356.805" x2="145.5" y2="324" stroke="#FEE3AE"/>
<line x1="187.094" y1="357" x2="187.094" y2="324" stroke="#FEE3AE"/>
<line x1="207" y1="324.156" x2="248" y2="324.156" stroke="#FEE3AE"/>
<line x1="206.775" y1="357" x2="206.775" y2="324" stroke="#FEE3AE"/>
<line x1="248.5" y1="356.805" x2="248.5" y2="324" stroke="#FEE3AE"/>
</g>
<defs>
<clipPath id="clip0">
<rect width="375" height="667" fill="white"/>
</clipPath>
</defs>
</svg>
