<svg width="57" height="35" viewBox="0 0 57 35" fill="none" xmlns="http://www.w3.org/2000/svg">
<path d="M45.8478 12.5C45.0486 12.5 44.2716 12.5875 43.5195 12.7513L40.133 2.5H44.6087C45.2927 2.5 45.8478 3.06125 45.8478 3.75H48.3261C48.3261 1.6825 46.6582 0 44.6087 0H36.6931L38.3449 5H19.3527L18.1136 2.5H21.0652V0H11.1522V2.5H15.3429L17.2227 6.29125L14.3789 12.9837C13.3553 12.6712 12.2736 12.5 11.1522 12.5C5.00361 12.5 0 17.5462 0 23.75C0 29.9538 5.00361 35 11.1522 35C16.8819 35 21.6117 30.615 22.2312 25H27.8755L39.7538 9.2625L41.1726 13.55C37.3548 15.3387 34.6957 19.2337 34.6957 23.75C34.6957 29.9538 39.698 35 45.8478 35C51.9976 35 57 29.9538 57 23.75C57 17.5462 51.9976 12.5 45.8478 12.5ZM11.1522 32.5C6.36913 32.5 2.47826 28.5737 2.47826 23.75C2.47826 18.9263 6.36913 15 11.1522 15C11.9279 15 12.6751 15.1125 13.3913 15.305L9.27241 25H19.727C19.1235 29.2337 15.5139 32.5 11.1522 32.5ZM13.0319 22.5L15.6688 16.2938C17.8212 17.625 19.3527 19.8725 19.727 22.5H13.0319ZM22.2312 22.5C21.8285 18.845 19.6823 15.7175 16.6527 13.975L18.6737 9.21875L25.256 22.5H22.2312ZM27.4802 21.3963L20.5919 7.5H37.9682L27.4802 21.3963ZM45.8478 32.5C41.066 32.5 37.1739 28.5737 37.1739 23.75C37.1739 20.335 39.1268 17.38 41.9607 15.9375L44.6719 24.145L47.0213 23.3538L44.3101 15.1463C44.8107 15.0538 45.3224 15 45.8478 15C50.6296 15 54.5217 18.9263 54.5217 23.75C54.5217 28.5737 50.6296 32.5 45.8478 32.5Z" fill="white"/>
</svg>
