<svg width="47" height="40" viewBox="0 0 47 40" fill="none" xmlns="http://www.w3.org/2000/svg">
<path d="M45.42 28.3356V18.0656H1V28.3356M45.42 28.3356H1M45.42 28.3356V38.7356H1V28.3356M1.42 23.1056H4.42M1.42 33.1056H4.42M45.42 23.1056H42.42M45.42 33.1056H42.42M6.1 14.4856C5.74 8.5256 7 1.5856 9.89 1.0356C12.78 0.485596 16.29 6.4056 18 12.1156M4 18.0356C3.82 16.8956 3.68 15.6556 3.58 14.2856C3.58 14.2856 8.46 14.3656 11.13 17.9256M11.12 17.9656C11.12 17.9656 15.57 13.0956 19.65 11.1456C20.3227 13.0006 20.815 14.9161 21.12 16.8656M40.07 18.0356C40.5613 17.6365 41.0165 17.1948 41.43 16.7156C45.18 12.3656 41.27 9.8056 41.27 9.8056C41.27 9.8056 38.71 5.8956 34.35 9.6456C32.41 11.3056 30.35 14.7356 28.68 18.0256M32.31 13.1856L33.72 14.5956M44.94 10.0356L42.16 9.9056C42.0463 9.89959 41.9351 9.87026 41.8332 9.81942C41.7314 9.76859 41.641 9.69735 41.5679 9.61012C41.4947 9.5229 41.4403 9.42155 41.408 9.31239C41.3756 9.20323 41.3661 9.08859 41.38 8.9756L41.85 5.1156M35.94 8.5856C35.507 7.91689 34.915 7.36594 34.217 6.98202C33.5189 6.5981 32.7366 6.39318 31.94 6.3856C31.5101 6.39271 31.0831 6.4566 30.67 6.5756C30.6744 6.51234 30.6744 6.44885 30.67 6.3856C30.6996 5.73615 30.5973 5.08744 30.3692 4.47866C30.1411 3.86987 29.7919 3.31364 29.3428 2.84358C28.8937 2.37351 28.354 1.99937 27.7562 1.74375C27.1585 1.48813 26.5151 1.35634 25.865 1.35634C25.2149 1.35634 24.5715 1.48813 23.9738 1.74375C23.376 1.99937 22.8363 2.37351 22.3872 2.84358C21.9381 3.31364 21.5889 3.86987 21.3608 4.47866C21.1327 5.08744 21.0304 5.73615 21.06 6.3856C21.06 6.4456 21.06 6.5056 21.06 6.5756C20.3004 6.35519 19.4972 6.33132 18.7259 6.50623C17.9545 6.68114 17.2402 7.0491 16.65 7.5756M25.42 18.1056V10.1056M22.09 12.1056L25.42 15.1056L28.78 12.1056" stroke="white" stroke-width="2" stroke-linecap="round" stroke-linejoin="round"/>
</svg>
