<svg width="47" height="44" viewBox="0 0 47 44" fill="none" xmlns="http://www.w3.org/2000/svg">
<path d="M42.5938 8.8H35.25V4.4C35.25 1.97083 33.2764 0 30.8438 0H16.1562C13.7236 0 11.75 1.97083 11.75 4.4V8.8H4.40625C1.97363 8.8 0 10.7708 0 13.2V39.6C0 42.0292 1.97363 44 4.40625 44H42.5938C45.0264 44 47 42.0292 47 39.6V13.2C47 10.7708 45.0264 8.8 42.5938 8.8ZM17.625 5.86667H29.375V8.8H17.625V5.86667ZM32.3125 28.6C32.3125 29.0033 31.982 29.3333 31.5781 29.3333H26.4375V34.4667C26.4375 34.87 26.107 35.2 25.7031 35.2H21.2969C20.893 35.2 20.5625 34.87 20.5625 34.4667V29.3333H15.4219C15.018 29.3333 14.6875 29.0033 14.6875 28.6V24.2C14.6875 23.7967 15.018 23.4667 15.4219 23.4667H20.5625V18.3333C20.5625 17.93 20.893 17.6 21.2969 17.6H25.7031C26.107 17.6 26.4375 17.93 26.4375 18.3333V23.4667H31.5781C31.982 23.4667 32.3125 23.7967 32.3125 24.2V28.6Z" fill="white"/>
</svg>
