<svg width="26" height="24" viewBox="0 0 26 24" fill="none" xmlns="http://www.w3.org/2000/svg">
<path d="M12.2831 0.43092C12.4177 0.16705 12.6954 1.16921e-08 12.9996 1.16921e-08C13.3038 -5.1027e-05 13.5815 0.166999 13.7162 0.430868L16.8328 6.54004C17.1259 7.11449 17.6923 7.51274 18.3476 7.60481L25.3158 8.58491C25.6168 8.62727 25.8669 8.83122 25.9609 9.11112C26.0548 9.39096 25.9765 9.69822 25.7587 9.90365L20.7168 14.6595C20.2427 15.1067 20.0264 15.751 20.1382 16.3823L21.3279 23.0963C21.3793 23.3864 21.256 23.6795 21.01 23.8523C20.7639 24.0254 20.4377 24.0481 20.1685 23.9112L13.9358 20.7414C13.3498 20.4433 12.6496 20.4433 12.0634 20.7415L5.83129 23.9111C5.56206 24.048 5.23585 24.0251 4.98982 23.8522C4.74375 23.6792 4.62057 23.3861 4.67195 23.0961L5.86215 16.3827C5.97414 15.7511 5.75776 15.1067 5.28354 14.6594L0.241321 9.9037C0.0235686 9.69827 -0.0548707 9.39102 0.0391298 9.11117C0.13313 8.83132 0.383165 8.62737 0.684157 8.58496L7.65222 7.60492C8.30748 7.51274 8.87397 7.11454 9.16705 6.53999L12.2831 0.43092Z" fill="white"/>
</svg>
