<svg width="29" height="25" viewBox="0 0 29 25" fill="none" xmlns="http://www.w3.org/2000/svg">
<path d="M26.9448 2.78429C25.5745 1.48341 23.6813 0.833252 21.2644 0.833252C20.5955 0.833252 19.9129 0.946002 19.2172 1.17139C18.5212 1.39695 17.8737 1.70126 17.2755 2.08409C16.6765 2.46681 16.1617 2.82623 15.7298 3.16178C15.2985 3.49744 14.8884 3.85415 14.5 4.23164C14.1115 3.85415 13.7015 3.49744 13.2701 3.16178C12.8384 2.82623 12.3234 2.46703 11.7245 2.08409C11.1257 1.70109 10.4784 1.39701 9.78254 1.17139C9.08677 0.946058 8.40426 0.833252 7.73541 0.833252C5.31866 0.833252 3.42536 1.48358 2.05524 2.78429C0.685117 4.08489 0 5.8889 0 8.19649C0 8.89928 0.126968 9.62317 0.380394 10.3676C0.63382 11.1124 0.922615 11.747 1.24621 12.2714C1.56976 12.7957 1.93666 13.3072 2.34664 13.8054C2.75662 14.3037 3.05624 14.6469 3.24483 14.8359C3.43358 15.0245 3.58197 15.161 3.68984 15.2447L13.7879 24.7164C13.9822 24.9054 14.2195 24.9999 14.5 24.9999C14.7804 24.9999 15.0179 24.9054 15.2121 24.7168L25.2941 15.2765C27.7648 12.8747 29 10.5146 29 8.19649C29.0001 5.8889 28.3148 4.08489 26.9448 2.78429Z" fill="white"/>
<path d="M13.461 9.06625V11.6343H16.713V12.9243H13.461V16.4583H11.841V7.78225H17.313V9.06625H13.461Z" fill="#FFAC30"/>
</svg>
