<svg width="130" height="130" viewBox="0 0 130 130" fill="none" xmlns="http://www.w3.org/2000/svg">
<circle cx="65" cy="65" r="65" fill="white"/>
<path d="M117.812 101.144C95.1132 89.7382 114.859 107.836 86.7255 107.836C58.5921 107.836 20.3125 128.756 20.3125 105.424C20.3125 82.0931 36.7784 77.1875 64.9118 77.1875C93.0452 77.1875 117.812 77.813 117.812 101.144Z" fill="#FF5E5E"/>
<path d="M106.992 87.9517C106.825 83.2359 109.725 78.4035 108.017 74.0126C106.742 70.7466 103.251 68.7803 101.851 65.5725C100.451 62.3648 101.335 58.9071 101.901 55.5744C102.468 52.2417 102.584 48.3757 100.235 45.9512C98.2935 43.9599 95.1858 43.5183 93.1445 41.627C91.2865 39.9606 90.6033 37.2694 90.445 34.7449C90.2867 32.2204 90.57 29.6792 90.245 27.1713C89.8908 24.5978 88.9203 22.1479 87.416 20.0301C85.9118 17.9122 83.9182 16.1889 81.605 15.0069C76.9725 12.699 71.1819 12.8656 66.8494 17.3315L82.4048 76.4872C91.1449 78.0119 99.26 82.1861 106.992 87.9517Z" fill="#263238"/>
<path d="M107.333 63.7729C107.51 63.8209 107.675 63.9061 107.816 64.0228C108.238 64.3558 108.52 64.8341 108.608 65.3642C108.701 65.7784 108.69 66.2094 108.575 66.6181C108.46 67.0268 108.245 67.4005 107.95 67.7055C107.527 68.0785 107.013 68.334 106.461 68.4466C105.908 68.5592 105.335 68.5248 104.8 68.347C104.154 68.1308 103.571 67.7596 103.102 67.2657C102.633 66.7718 102.292 66.1704 102.109 65.5142C101.674 64.0284 101.697 62.4458 102.176 60.9734C102.592 59.4153 103.317 57.8906 103.842 56.2576C104.41 54.5824 104.539 52.7895 104.217 51.0502C103.926 49.3662 103.24 47.7749 102.217 46.4065C101.193 45.038 99.8598 43.9313 98.3264 43.1767C96.91 42.4935 95.4519 42.0436 94.1605 41.4103C93.0419 40.917 92.0499 40.1762 91.259 39.2439C90.4681 38.3116 89.8991 37.2121 89.5947 36.028C89.3793 35.2303 89.2894 34.4039 89.3281 33.5785C89.3524 33.0574 89.4334 32.5406 89.5697 32.0371C89.6078 31.8533 89.6665 31.6745 89.7447 31.5038C89.5819 32.1784 89.4897 32.8681 89.4697 33.5618C89.4274 35.1601 89.8631 36.7347 90.7211 38.084C91.579 39.4332 92.8201 40.4957 94.2855 41.1354C95.5519 41.7353 97.0017 42.1769 98.4514 42.8684C100.037 43.6373 101.417 44.773 102.476 46.1813C103.535 47.5897 104.243 49.2302 104.542 50.9669C104.874 52.7616 104.742 54.6115 104.159 56.3409C103.617 58.0073 102.892 59.5236 102.492 61.04C102.027 62.4532 101.992 63.9729 102.392 65.4059C102.559 66.0237 102.874 66.5916 103.309 67.0605C103.745 67.5294 104.288 67.8851 104.892 68.0971C105.388 68.2675 105.919 68.3064 106.435 68.2101C106.95 68.1137 107.432 67.8853 107.833 67.5472C108.111 67.2656 108.317 66.9204 108.432 66.5414C108.546 66.1625 108.567 65.7612 108.491 65.3726C108.419 64.8677 108.171 64.4045 107.791 64.0645C107.508 63.8562 107.325 63.7979 107.333 63.7729Z" fill="#263238"/>
<path d="M52.1521 22.7804C49.9192 28.846 48.9194 33.7701 46.7281 38.6108C45.495 41.3437 43.8536 44.0848 44.0036 47.0843C44.1119 49.1339 45.0701 51.1002 45.0118 53.1581C44.9201 56.7825 41.8457 59.507 39.1128 61.8898C36.38 64.2727 33.5305 67.4221 34.1138 70.9965C34.3554 72.5545 35.2469 73.9709 35.3802 75.5456C35.5468 77.462 34.547 79.2949 33.3722 80.8113C32.0797 82.2383 30.8908 83.7558 29.8146 85.3522L29.3896 88.2433L63.55 77.412" fill="#263238"/>
<path d="M58.9587 75.5456C59.4836 68.9302 67.1156 72.9545 66.2657 66.3807C64.3492 51.5571 63.6331 36.6029 64.1244 21.664" fill="#263238"/>
<path d="M82.1132 75.7123L85.0627 30.5124C77.5641 20.1643 67.3576 18.0147 54.9849 21.6557C54.9849 21.6557 49.7359 43.5016 50.3608 53.9414C51.0106 64.8893 59.1341 67.0723 59.1341 67.0723C59.1341 67.0723 58.8509 70.7549 58.4509 75.2708C56.3513 75.6124 54.1434 76.0623 51.8438 76.6288C50.9606 76.8538 68.1991 101.766 68.1991 101.766L89.7201 78.4368C87.319 77.1897 84.7601 76.2732 82.1132 75.7123Z" fill="#FFBE9D"/>
<path d="M55.0015 38.7775C54.9613 39.1369 55.0635 39.4979 55.2862 39.7829C55.5089 40.0679 55.8344 40.2543 56.1929 40.3022C56.3677 40.3331 56.5468 40.3289 56.7199 40.2897C56.8929 40.2505 57.0564 40.1771 57.2008 40.0739C57.3451 39.9707 57.4674 39.8397 57.5604 39.6886C57.6535 39.5375 57.7154 39.3694 57.7427 39.1941C57.7829 38.8346 57.6807 38.4737 57.458 38.1887C57.2353 37.9036 56.9097 37.7172 56.5512 37.6693C56.3764 37.6372 56.1968 37.6406 56.0233 37.6793C55.8498 37.718 55.6859 37.7913 55.5413 37.8947C55.3967 37.9981 55.2744 38.1295 55.1817 38.2812C55.0889 38.4329 55.0276 38.6016 55.0015 38.7775Z" fill="#263238"/>
<path d="M53.3433 37.586C53.4933 37.7776 54.6181 37.1111 56.1095 37.2611C57.6009 37.411 58.609 38.2609 58.7923 38.0942C58.9756 37.9276 58.734 37.6777 58.2924 37.2611C57.6944 36.7497 56.9516 36.438 56.1678 36.3696C55.3936 36.2863 54.6132 36.4559 53.9432 36.8528C53.4516 37.1861 53.2683 37.4944 53.3433 37.586Z" fill="#263238"/>
<path d="M70.1988 40.5355C70.163 40.8954 70.268 41.2552 70.4916 41.5395C70.7153 41.8237 71.0403 42.0103 71.3985 42.0602C71.5734 42.0924 71.7529 42.089 71.9264 42.0502C72.0999 42.0115 72.2638 41.9383 72.4084 41.8349C72.553 41.7315 72.6754 41.6 72.7681 41.4484C72.8608 41.2967 72.9221 41.1279 72.9482 40.9521C72.984 40.5922 72.879 40.2324 72.6554 39.9482C72.4317 39.6639 72.1067 39.4773 71.7485 39.4274C71.5737 39.3964 71.3946 39.4007 71.2216 39.4399C71.0485 39.4791 70.885 39.5525 70.7407 39.6557C70.5963 39.7589 70.4741 39.8899 70.381 40.041C70.2879 40.192 70.226 40.3602 70.1988 40.5355Z" fill="#263238"/>
<path d="M68.5659 39.319C68.7159 39.519 69.8407 38.8441 71.3321 38.9941C72.8234 39.1441 73.8316 39.9939 74.0149 39.8273C74.1982 39.6606 73.9566 39.419 73.515 38.9941C72.9117 38.5183 72.1812 38.2313 71.4154 38.1692C70.6416 38.0947 69.8639 38.2637 69.1908 38.6525C68.6742 38.9191 68.4909 39.2274 68.5659 39.319Z" fill="#263238"/>
<path d="M61.8919 49.5754C61.1357 49.2489 60.3403 49.0221 59.5257 48.9006C59.1424 48.8256 58.7925 48.7089 58.7591 48.4423C58.7624 48.0476 58.8876 47.6635 59.1174 47.3425L60.5255 44.5597C62.4918 40.6021 63.9582 37.3277 63.7915 37.2444C63.6249 37.1611 61.9085 40.3188 59.9422 44.2848L58.5842 47.0842C58.3001 47.5202 58.1791 48.0425 58.2426 48.559C58.2853 48.6974 58.3583 48.8245 58.4563 48.9312C58.5543 49.0378 58.6748 49.1213 58.8091 49.1755C59.012 49.2553 59.2252 49.3058 59.4423 49.3255C60.245 49.5118 61.0681 49.5958 61.8919 49.5754Z" fill="#263238"/>
<path d="M59.134 67.0723C64.1911 67.6449 69.3079 66.8027 73.9146 64.6394C73.9146 64.6394 69.6821 71.7048 59.0007 69.6385L59.134 67.0723Z" fill="#EB996E"/>
<path d="M62.1751 53.2164C62.4935 52.8888 62.8899 52.6475 63.327 52.5149C63.7642 52.3822 64.2278 52.3627 64.6746 52.4582C64.9991 52.5226 65.3076 52.6507 65.5822 52.8352C65.8568 53.0197 66.092 53.2569 66.2743 53.533C66.4495 53.8 66.5379 54.1146 66.5274 54.4337C66.517 54.7529 66.4082 55.061 66.216 55.316C65.951 55.5605 65.6188 55.7199 65.2623 55.7733C64.9057 55.8268 64.5413 55.772 64.2163 55.6159C63.5377 55.3005 62.9287 54.853 62.425 54.2995C62.2721 54.1622 62.1451 53.9985 62.0501 53.8163C62.0038 53.7283 61.9839 53.6288 61.9928 53.5298C62.0016 53.4308 62.0389 53.3364 62.1001 53.258" fill="#EB996E"/>
<path d="M66.1744 51.0336C65.9328 50.992 65.7661 52.6083 64.2747 53.6165C62.7833 54.6246 61.0753 54.283 61.042 54.508C61.042 54.608 61.3919 54.8579 62.1168 54.9496C63.0622 55.0544 64.0146 54.8245 64.808 54.2997C65.5676 53.7928 66.0997 53.0097 66.291 52.1168C66.416 51.4502 66.2827 51.0336 66.1744 51.0336Z" fill="#263238"/>
<path d="M58.434 35.4031C58.3423 35.6281 57.3175 35.4031 56.0677 35.4031C54.818 35.4031 53.7932 35.5864 53.7098 35.4031C53.6265 35.2198 54.643 34.5699 56.0761 34.5699C57.5091 34.5699 58.5256 35.1948 58.434 35.4031Z" fill="#263238"/>
<path d="M73.4062 36.0447C73.3562 36.0447 73.3562 35.9281 73.4062 35.7864V36.0114C72.6572 35.7273 71.8767 35.5343 71.0817 35.4365C69.6736 35.2865 68.5821 35.7448 68.4321 35.5281C68.2822 35.3115 68.6071 35.1699 69.0904 34.9366C69.7354 34.6372 70.449 34.5163 71.1566 34.5867C71.6209 34.6079 72.0761 34.7221 72.4955 34.9225C72.9148 35.1228 73.2896 35.4053 73.5978 35.7531L73.6978 35.9197L73.6312 35.9697C73.5312 36.053 73.4479 36.078 73.4062 36.0447Z" fill="#263238"/>
<path d="M73.7895 45.7344C73.6728 45.7344 73.5562 45.5845 73.5312 45.3762C73.5062 45.1679 73.5812 44.9762 73.6978 44.9596C73.8145 44.9429 73.9311 45.1096 73.9561 45.3262C73.9811 45.5428 73.9144 45.7261 73.7895 45.7344Z" fill="#EB996E"/>
<path d="M70.3739 45.5929C70.2573 45.5929 70.1823 45.393 70.2656 45.1847C70.3489 44.9764 70.5489 44.9014 70.6322 44.9847C70.6703 45.0383 70.6907 45.1023 70.6907 45.168C70.6907 45.2337 70.6703 45.2977 70.6322 45.3513C70.5822 45.4846 70.4989 45.6013 70.3739 45.5929Z" fill="#EB996E"/>
<path d="M72.2481 47.0593C72.1937 47.0678 72.138 47.0593 72.0886 47.0349C72.0393 47.0105 71.9987 46.9714 71.9724 46.923C71.9462 46.8746 71.9356 46.8192 71.942 46.7645C71.9485 46.7098 71.9718 46.6585 72.0086 46.6176C72.0455 46.5766 72.0941 46.5481 72.1478 46.5359C72.2015 46.5237 72.2577 46.5285 72.3086 46.5495C72.3595 46.5705 72.4026 46.6068 72.4321 46.6533C72.4615 46.6998 72.4759 46.7543 72.4731 46.8093C72.4753 46.8407 72.4713 46.8721 72.4611 46.9018C72.4509 46.9315 72.4348 46.9589 72.4138 46.9822C72.3928 47.0056 72.3673 47.0244 72.3388 47.0377C72.3104 47.0509 72.2795 47.0583 72.2481 47.0593Z" fill="#EB996E"/>
<path d="M52.7606 44.9264C52.6439 44.9264 52.5689 44.7264 52.5939 44.5098C52.6189 44.2931 52.7356 44.1348 52.8522 44.1515C52.9688 44.1682 53.0438 44.3515 53.0188 44.5598C52.9938 44.7681 52.8772 44.9347 52.7606 44.9264Z" fill="#EB996E"/>
<path d="M56.1932 44.993C56.0765 44.993 55.9849 44.8347 55.9932 44.6681C56.0015 44.5014 56.1098 44.3514 56.2265 44.3598C56.3431 44.3681 56.4348 44.5098 56.4264 44.6847C56.4181 44.8597 56.3098 45.0013 56.1932 44.993Z" fill="#EB996E"/>
<path d="M54.5179 46.0761C54.4012 46.0761 54.3013 45.9095 54.3013 45.6929C54.3013 45.4762 54.3929 45.3096 54.5096 45.3096C54.6262 45.3096 54.7262 45.4762 54.7262 45.6929C54.7262 45.9095 54.6345 46.0761 54.5179 46.0761Z" fill="#EB996E"/>
<path d="M65.3996 16.4566C64.9407 21.6716 62.7937 26.5946 59.284 30.479C55.7847 34.32 51.8437 37.6777 46.728 38.6025C48.1194 34.195 48.3944 30.654 49.5442 26.938C50.694 23.2221 52.2437 19.5727 55.1181 17.0232C56.9379 15.4564 59.1555 14.4233 61.5258 14.038C63.896 13.6528 66.3267 13.9304 68.549 14.8403" fill="#263238"/>
<path d="M47.8279 34.4533C48.9259 34.4439 50.0192 34.3069 51.0856 34.045C52.2205 33.6917 53.292 33.1601 54.26 32.4703C55.451 31.6245 56.5661 30.6767 57.5927 29.6375C59.4375 27.7127 61.0741 25.5986 62.4752 23.3303L63.7583 21.2724C63.8973 21.0096 64.0619 20.7612 64.2498 20.5309C64.1593 20.8228 64.0334 21.1026 63.8749 21.364C63.6083 21.8723 63.2084 22.6055 62.6835 23.4886C61.3371 25.8188 59.7115 27.976 57.8427 29.9124C56.7965 30.9672 55.6558 31.9238 54.435 32.7703C53.432 33.4628 52.3194 33.9811 51.1439 34.3033C50.3506 34.5125 49.5311 34.6051 48.711 34.5782C48.4122 34.5793 48.1147 34.5372 47.8279 34.4533Z" fill="#455A64"/>
<path d="M51.1359 34.9948C51.0469 35.1382 50.9436 35.2722 50.8276 35.3948C50.6193 35.6614 50.3194 36.0446 49.9945 36.5779C49.0062 38.0596 48.3027 39.7125 47.9199 41.452C47.6463 42.6481 47.5342 43.8754 47.5866 45.1013C47.6753 46.5053 47.8843 47.899 48.2115 49.2672C48.5951 50.819 48.8322 52.4035 48.9197 53.9997C48.9765 55.7262 48.6164 57.4409 47.8699 58.9987C47.1304 60.5494 46.0374 61.9049 44.6788 62.9563C43.354 63.9561 41.9043 64.6227 40.7795 65.5808C40.2211 65.9854 39.76 66.5094 39.4299 67.1148C39.0999 67.7202 38.9091 68.3917 38.8715 69.0802C38.9649 70.2942 39.3601 71.4655 40.0213 72.4879C40.5708 73.354 41.0393 74.2688 41.4211 75.2207C41.6988 75.9541 41.8208 76.7372 41.7793 77.5203C41.7521 78.0166 41.6002 78.498 41.3377 78.92C41.2484 79.0677 41.1391 79.2023 41.0128 79.32C41.0926 79.1701 41.1816 79.0254 41.2794 78.8867C41.5071 78.4633 41.6327 77.9925 41.646 77.512C41.6592 76.7507 41.5204 75.9944 41.2378 75.2874C40.8353 74.3576 40.3559 73.463 39.8047 72.6129C39.1047 71.5576 38.6833 70.3423 38.5799 69.0802C38.5707 68.3605 38.7579 67.6518 39.1215 67.0306C39.5045 66.3953 39.995 65.8314 40.5712 65.3642C41.7377 64.3644 43.1874 63.6979 44.4705 62.7147C45.782 61.6928 46.8351 60.3772 47.5449 58.8738C48.2666 57.3762 48.6207 55.7281 48.5781 54.0663C48.4908 52.5107 48.2649 50.966 47.9032 49.4505C47.5769 48.0576 47.3761 46.6383 47.3033 45.2096C47.2616 43.962 47.3906 42.7146 47.6866 41.502C48.1014 39.7413 48.8479 38.0758 49.8862 36.5945C50.1667 36.1947 50.4728 35.8134 50.8026 35.4531C50.8935 35.2866 51.0055 35.1326 51.1359 34.9948Z" fill="#455A64"/>
<path d="M38.9214 57.8656C38.9214 57.8656 38.9964 58.0572 39.213 58.3821C39.5183 58.8483 39.9445 59.2226 40.4461 59.4653C41.2365 59.8612 42.1341 59.9898 43.004 59.8319C43.5724 59.7212 44.1102 59.489 44.5805 59.151C45.0507 58.8131 45.4424 58.3774 45.7285 57.8739C46.4428 56.6465 46.7189 55.2129 46.5116 53.808C46.2391 52.1988 45.6006 50.6738 44.6453 49.3505C43.7038 47.9007 42.4041 46.601 41.3709 44.968C40.8356 44.1361 40.4677 43.2078 40.2878 42.2351C40.1113 41.228 40.1655 40.1939 40.4461 39.2107C40.734 38.247 41.2158 37.3522 41.862 36.5814C42.5082 35.8106 43.3051 35.1799 44.2037 34.7282C45.0561 34.3226 45.9625 34.042 46.8949 33.895C47.7864 33.7117 48.6613 33.5284 49.4944 33.2951C52.8771 32.4619 55.3267 30.2707 57.3013 28.6127C58.8894 27.2823 60.2906 25.7437 61.4672 24.0385C61.8729 23.3954 62.2214 22.7179 62.5087 22.0139C62.4645 22.2086 62.4088 22.4006 62.342 22.5888C62.1345 23.1183 61.8808 23.6285 61.5838 24.1135C60.423 25.8654 59.0205 27.4446 57.418 28.8043C56.3407 29.7637 55.2085 30.6595 54.0269 31.4871C52.6624 32.4501 51.1396 33.1663 49.5278 33.6034C48.6946 33.8534 47.8031 34.0367 46.9199 34.2283C46.0141 34.3752 45.1352 34.656 44.3121 35.0615C43.457 35.4947 42.6986 36.0969 42.0828 36.8315C41.467 37.5662 41.0066 38.418 40.7294 39.3357C40.4639 40.2675 40.4126 41.2473 40.5794 42.2018C40.7537 43.1305 41.1074 44.0164 41.6209 44.8097C42.6124 46.3927 43.9121 47.7174 44.8703 49.1922C45.8458 50.5617 46.4903 52.1389 46.7533 53.7997C46.9602 55.2641 46.6666 56.7555 45.9201 58.0322C45.3782 58.9657 44.4951 59.6524 43.457 59.9477C42.4188 60.243 41.3065 60.1238 40.3545 59.6152C39.8438 59.3436 39.4174 58.9373 39.1214 58.4405C39.0238 58.261 38.9563 58.0668 38.9214 57.8656Z" fill="#263238"/>
<path d="M102.851 84.6523C103.35 83.9903 103.793 83.288 104.175 82.5527C104.576 81.6782 104.857 80.7532 105.009 79.8032C105.233 78.5422 105.216 77.2502 104.959 75.9956C104.664 74.4698 104.001 73.0395 103.026 71.8297C101.854 70.48 100.541 69.2594 99.1097 68.1887C97.4893 66.9967 96.081 65.5405 94.9438 63.8812C94.3639 62.9743 93.9729 61.9598 93.794 60.8984C93.6385 59.7913 93.7854 58.6628 94.2189 57.6323C95.0521 55.5577 96.5268 53.9247 97.31 52.05C97.7283 51.1724 97.8901 50.1944 97.7766 49.2288C97.6631 48.2632 97.2789 47.3494 96.6685 46.5927C95.5542 45.2043 94.1821 44.0443 92.6276 43.1767C91.2951 42.391 90.0496 41.4666 88.9116 40.4189C87.9661 39.5103 87.2199 38.4151 86.7203 37.2028C86.3448 36.2825 86.2184 35.2796 86.3537 34.295C86.4071 33.9378 86.4936 33.5864 86.612 33.2452C86.737 32.9619 86.8286 32.7119 86.9286 32.5286L87.1786 32.1121C87.2369 32.0204 87.2619 31.9788 87.2702 31.9788C87.2786 31.9788 87.2702 32.0371 87.2119 32.1371L86.9953 32.562C86.9036 32.7453 86.8203 32.9952 86.712 33.2785C86.6098 33.6159 86.5373 33.9616 86.4954 34.3117C86.3844 35.2699 86.5251 36.2405 86.9036 37.1278C87.408 38.3038 88.1514 39.3621 89.0866 40.2356C90.2438 41.2748 91.5124 42.1829 92.8692 42.9434C94.4705 43.8197 95.8855 44.9998 97.0351 46.4177C97.681 47.2197 98.0883 48.1872 98.2106 49.2096C98.3329 50.2321 98.1652 51.2683 97.7266 52.2C96.8934 54.1413 95.4437 55.7827 94.6439 57.7823C94.2376 58.7557 94.0968 59.8195 94.2356 60.8651C94.4125 61.8776 94.7861 62.8457 95.3354 63.7145C96.4454 65.3417 97.8164 66.7746 99.393 67.9554C100.832 69.0482 102.15 70.2911 103.326 71.6631C104.32 72.9072 104.99 74.3787 105.275 75.9456C105.521 77.2309 105.521 78.5512 105.275 79.8365C105.092 80.8033 104.775 81.7398 104.334 82.6194C104.049 83.1677 103.712 83.6868 103.326 84.1691L103.009 84.5357L102.851 84.6523Z" fill="#455A64"/>
<path d="M97.3269 82.8693C96.7603 77.9202 95.7938 75.8789 95.8188 70.8965C95.8188 66.3307 91.6529 60.2568 94.2358 54.8912C93.317 51.5102 92.1072 48.2152 90.6198 45.043C89.7449 43.06 86.5622 37.0528 85.754 35.0448C86.2873 31.3372 88.9534 31.6121 88.4369 27.9128C87.8203 23.472 85.729 19.0311 81.9631 16.6066C79.5249 15.1884 76.7884 14.3609 73.9729 14.1904C72.0286 13.9271 70.0528 14.0174 68.1406 14.457C66.2125 14.9171 64.5409 16.1133 63.4832 17.7897L64.4663 16.8565C64.0845 18.9413 64.1808 21.0856 64.748 23.1278C65.3152 25.1699 66.3384 27.0568 67.7407 28.646C70.5883 31.8093 74.346 34.0127 78.497 34.9532C78.4611 36.3385 78.7733 37.7107 79.4052 38.9441L79.3052 39.0858L79.5468 39.2191C79.8062 39.6817 80.1074 40.1195 80.4467 40.5272C80.9087 41.0601 81.438 41.5306 82.0214 41.9269C82.4343 42.7624 82.649 43.6819 82.649 44.6139C82.649 45.5459 82.4343 46.4654 82.0214 47.3009C80.9883 49.2255 78.9136 50.6336 78.497 52.7416C78.0221 55.1495 79.8551 57.4573 79.8135 59.9069C79.7219 61.2064 79.3035 62.4617 78.597 63.5562C74.1478 69.2718 74.931 75.1541 77.4472 81.9361C78.3804 84.4357 79.8218 87.0935 79.1136 89.6847C78.4221 92.1259 75.9642 93.734 75.1976 96.1502C74.1228 99.4829 76.5974 102.866 78.9136 105.523C83.8548 103.305 89.0117 101.602 94.3024 100.441C93.7672 98.2205 93.5042 95.9431 93.5193 93.659C93.7412 94.8692 94.3355 95.98 95.2192 96.8361C96.1029 97.6923 97.2319 98.2511 98.4486 98.4347C99.6653 98.6182 100.909 98.4172 102.006 97.8597C103.103 97.3023 103.998 96.4163 104.567 95.3253C100.143 92.9508 97.9018 87.8267 97.3269 82.8693Z" fill="#263238"/>
<path d="M90.2371 29.9458C90.2371 29.9458 90.1621 30.0458 89.9954 30.1874C89.7577 30.4126 89.5074 30.624 89.2456 30.8206C88.2822 31.5514 87.2329 32.1614 86.1212 32.637C84.4776 33.3627 82.7221 33.8023 80.9305 33.9367C78.7297 34.1215 76.5147 33.8375 74.4317 33.1036C72.3556 32.3421 70.4725 31.1332 68.916 29.5625C66.7889 27.425 65.2703 24.7589 64.5168 21.839C64.4002 21.4224 64.3502 21.0974 64.3085 20.8808C64.2808 20.7688 64.2641 20.6544 64.2585 20.5392C64.4102 20.9509 64.5382 21.371 64.6418 21.7973C64.9932 22.9481 65.4507 24.0638 66.0082 25.13C66.8249 26.6959 67.8819 28.1241 69.141 29.3626C70.6752 30.8868 72.5194 32.0632 74.5483 32.8119C76.589 33.5176 78.7518 33.8011 80.9055 33.6451C82.6669 33.5175 84.3966 33.1096 86.0295 32.437C87.527 31.7786 88.9396 30.9421 90.2371 29.9458Z" fill="#455A64"/>
<path d="M89.47 24.4468C89.2199 24.5592 88.9568 24.6404 88.6868 24.6884C87.9646 24.8676 87.229 24.9874 86.4872 25.0467C84.0201 25.2649 81.5359 24.915 79.225 24.0239C76.9142 23.1328 74.8382 21.7241 73.1564 19.906C72.6486 19.3621 72.1834 18.7799 71.765 18.1646C71.6003 17.9462 71.4632 17.7083 71.3567 17.4564C71.415 17.4564 72.0316 18.4062 73.3397 19.731C75.035 21.473 77.0847 22.8305 79.3501 23.7116C81.6155 24.5928 84.0438 24.977 86.4706 24.8384C88.3286 24.6967 89.4534 24.3801 89.47 24.4468Z" fill="#455A64"/>
<path d="M90.2367 26.8881C89.5839 27.8506 88.6967 28.631 87.6589 29.1558C86.621 29.6805 85.4666 29.9324 84.3044 29.8875C85.4024 29.6421 86.4739 29.2906 87.5038 28.8377C88.4769 28.2796 89.3923 27.6265 90.2367 26.8881Z" fill="#455A64"/>
<path d="M89.0118 101.766C89.0118 101.766 88.9452 101.491 88.7952 100.991C88.5906 100.259 88.166 99.6073 87.5788 99.1246C87.1955 98.808 86.7456 98.5247 86.254 98.1165C85.7448 97.6706 85.3431 97.1151 85.0792 96.4918C84.9349 96.148 84.8152 95.7944 84.721 95.4336C84.6127 95.0506 84.5484 94.6565 84.5293 94.2589C84.4641 93.3756 84.6958 92.4959 85.1875 91.7593C85.7334 90.9674 86.4775 90.3325 87.3455 89.918C88.2429 89.5031 88.9635 88.7825 89.3784 87.885C89.5797 87.414 89.6791 86.9058 89.67 86.3937C89.6344 85.8595 89.5076 85.3353 89.2951 84.8439C88.8175 83.8135 88.2603 82.8218 87.6287 81.8778C86.299 79.7324 85.6808 77.2217 85.8624 74.7042C86.0328 71.9991 87.1 69.4279 88.8952 67.3972C89.7284 66.364 90.5616 65.2392 90.5616 63.9395C90.4741 62.6655 89.9905 61.4507 89.1785 60.4651C88.4369 59.432 87.5121 58.5238 86.8706 57.4657C86.1195 56.4586 85.7239 55.2308 85.7458 53.9747C85.919 52.7975 86.4481 51.7014 87.2621 50.8336C87.9839 50.0419 88.5822 49.1459 89.0368 48.1757C89.4351 47.3064 89.6294 46.3575 89.6049 45.4015C89.5803 44.4456 89.3376 43.5079 88.8952 42.6601C88.469 41.9477 87.902 41.3297 87.2288 40.8438C86.5956 40.3605 85.9541 39.9606 85.3792 39.544C84.8187 39.1754 84.3232 38.7165 83.9128 38.1859C83.5783 37.734 83.3142 37.2339 83.1296 36.7029C82.8445 35.9769 82.7778 35.1833 82.9379 34.42C82.9971 34.1536 83.1137 33.9034 83.2796 33.6868C83.167 33.9276 83.0777 34.1787 83.013 34.4366C82.878 35.1867 82.9649 35.9598 83.2629 36.6612C83.449 37.1736 83.7132 37.6542 84.0461 38.0859C84.4538 38.5944 84.9438 39.0309 85.4958 39.3774C86.0707 39.7856 86.7123 40.2105 87.3705 40.6688C88.0806 41.1636 88.6818 41.7988 89.1368 42.5351C89.6074 43.4158 89.8701 44.3926 89.9048 45.3906C89.9394 46.3885 89.7452 47.3811 89.3368 48.2924C88.8734 49.2882 88.264 50.2093 87.5288 51.0252C86.7617 51.8492 86.262 52.8862 86.0957 53.9997C86.0848 55.1795 86.4625 56.3302 87.1705 57.274C87.8371 58.3072 88.7202 59.207 89.4784 60.2652C90.3407 61.3082 90.851 62.5972 90.9365 63.9478C90.9233 64.6472 90.7341 65.332 90.3866 65.9391C90.0404 66.5273 89.6446 67.0848 89.2035 67.6055C87.4526 69.5791 86.4089 72.0797 86.2374 74.7125C86.0508 77.154 86.6336 79.5927 87.9037 81.6862C88.5382 82.6487 89.0954 83.66 89.5701 84.7106C89.8008 85.2377 89.9335 85.8023 89.9617 86.377C89.9732 86.9331 89.8623 87.4849 89.6367 87.9934C89.1951 88.9509 88.423 89.717 87.4621 90.1513C86.6318 90.5389 85.9167 91.1362 85.3875 91.8843C84.9193 92.5717 84.6936 93.3955 84.746 94.2255C84.7928 94.971 84.9646 95.7033 85.2542 96.3918C85.4942 96.9922 85.8708 97.5285 86.354 97.9582C86.7956 98.3664 87.2705 98.658 87.6537 98.9913C88.2537 99.496 88.677 100.179 88.8619 100.941C88.9138 101.133 88.9528 101.327 88.9785 101.524C89.0046 101.602 89.0159 101.684 89.0118 101.766Z" fill="#455A64"/>
<path d="M90.3528 28.6461C90.3005 28.7499 90.2331 28.8453 90.1528 28.9294C89.9448 29.1941 89.7223 29.4473 89.4863 29.6876C88.6146 30.5686 87.6042 31.3004 86.4952 31.8538C84.8417 32.6823 83.0205 33.1212 81.1712 33.1369C78.9042 33.1497 76.6661 32.6273 74.6391 31.6122C73.5918 31.0762 72.6493 30.3566 71.8562 29.4876C71.1294 28.6706 70.5335 27.7459 70.0899 26.7464C69.2567 24.8551 68.7318 23.0638 68.1569 21.6307C67.7496 20.4856 67.1891 19.4009 66.4906 18.4063C65.974 17.7148 65.6074 17.3982 65.6574 17.3732C65.7554 17.4333 65.8451 17.5062 65.924 17.5898C66.1717 17.8174 66.4028 18.0624 66.6156 18.323C67.3821 19.2971 67.9972 20.3814 68.4402 21.5391C69.0484 22.9721 69.5817 24.7551 70.4398 26.6048C70.8734 27.5703 71.4522 28.4639 72.1562 29.2543C72.9301 30.0891 73.8436 30.7827 74.8557 31.3039C76.8339 32.2878 79.0118 32.8038 81.2212 32.812C84.2704 32.8104 87.207 31.659 89.4447 29.5876C90.0196 29.0043 90.3195 28.6211 90.3528 28.6461Z" fill="#455A64"/>
</svg>
