<svg width="35" height="35" viewBox="0 0 35 35" fill="none" xmlns="http://www.w3.org/2000/svg">
<path d="M34.9384 14.6444C28.0998 14.0009 22.9198 18.5084 22.544 24.9799L20.4164 27.1058V21.1457C20.4164 20.3682 20.2112 19.4823 19.8726 18.648L34.9996 3.52187C31.5832 0.103687 25.1191 1.02681 20.5634 5.58337C17.9445 8.20225 16.5331 11.4489 16.4491 14.3867L15.2386 13.1762C14.0053 5.85025 7.61645 0.133437 0 0C0.132563 7.61556 5.84982 14.0035 13.1749 15.2368L16.3809 18.4428C16.9558 19.0181 17.5 20.3315 17.5 21.1457V22.8235C16.681 21.8452 15.7085 20.9322 14.5745 20.1372C9.29558 16.4408 2.77113 16.6574 0 20.6146L17.5 32.8694V35H20.4164V31.2287L24.6063 27.0406C31.0761 26.6626 35.585 21.4848 34.9384 14.6444ZM3.49082 3.49081C7.50707 4.75125 10.7183 7.96294 11.9779 11.9779C7.96164 10.7183 4.75082 7.50663 3.49082 3.49081ZM5.05576 20.5931C7.30801 20.0602 10.3123 20.7126 12.9028 22.5286C15.4932 24.3416 17.1325 26.9421 17.4029 29.2407L5.05576 20.5931ZM22.6253 7.64575C24.8614 5.40837 27.7069 4.24506 30.0169 4.3785L19.359 15.036C19.2229 12.7269 20.3884 9.88138 22.6253 7.64575ZM30.0252 21.6103C28.8834 22.8633 27.342 23.688 25.5763 24.01C25.8528 22.4901 26.499 21.1317 27.4816 20.0519C28.6235 18.7989 30.1648 17.9742 31.9305 17.6527C31.6545 19.1717 31.0079 20.5306 30.0252 21.6103Z" fill="white"/>
</svg>
