<svg xmlns="http://www.w3.org/2000/svg" xmlns:xlink="http://www.w3.org/1999/xlink" viewBox="0 0 163.32 163.32"><defs><style>.cls-1,.cls-3,.cls-4{fill:none;stroke-linejoin:round;}.cls-1,.cls-3{stroke:#d6d6d6;}.cls-1{stroke-width:3px;}.cls-2{clip-path:url(#clip-path);}.cls-3{stroke-width:4px;}.cls-4{stroke:#f8d384;stroke-linecap:round;stroke-width:5px;}</style><clipPath id="clip-path" transform="translate(14.58 13.82)"><rect class="cls-1" x="1.5" y="1.5" width="132.68" height="132.68" rx="14.3"/></clipPath></defs><g id="Camada_2" data-name="Camada 2"><g id="Camada_1-2" data-name="Camada 1"><g class="cls-2"><path class="cls-3" d="M17.42-11.82V28.71a3.84,3.84,0,0,1-3.84,3.84H-12.58" transform="translate(14.58 13.82)"/><rect class="cls-3" x="45.11" y="2" width="30" height="44.37" rx="3.84"/><rect class="cls-3" x="88.21" y="2" width="30" height="44.37" rx="3.84"/><path class="cls-3" d="M146.73,32.55H120.57a3.84,3.84,0,0,1-3.84-3.84V-11.82" transform="translate(14.58 13.82)"/><path class="cls-3" d="M17.42,147.5V107a3.84,3.84,0,0,0-3.84-3.84H-12.58" transform="translate(14.58 13.82)"/><path class="cls-3" d="M146.73,103.13H120.57a3.84,3.84,0,0,0-3.84,3.84V147.5" transform="translate(14.58 13.82)"/><rect class="cls-3" x="2" y="59.48" width="30" height="44.37" rx="3.84"/><rect class="cls-3" x="45.11" y="59.48" width="30" height="44.37" rx="3.84"/><rect class="cls-3" x="88.21" y="59.48" width="30" height="22.18" rx="3.84"/><rect class="cls-3" x="131.32" y="59.48" width="30" height="44.37" rx="3.84"/><rect class="cls-3" x="45.11" y="116.95" width="30" height="44.37" rx="3.84"/><rect class="cls-3" x="88.21" y="116.95" width="30" height="44.37" rx="3.84"/><path class="cls-4" d="M24.18,43.33V90.56a6.72,6.72,0,0,0,6.72,6.73H60.35a6.72,6.72,0,0,0,6.72-6.73V45.12a6.73,6.73,0,0,1,6.73-6.73h31a6.72,6.72,0,0,1,6.72,6.73V68.78a6.72,6.72,0,0,1-6.72,6.72H70.31" transform="translate(14.58 13.82)"/></g><rect class="cls-1" x="16.08" y="15.32" width="132.68" height="132.68" rx="14.3"/></g></g></svg>