<svg width="28" height="28" viewBox="0 0 28 28" fill="none" xmlns="http://www.w3.org/2000/svg">
<path d="M19.7422 0.480648V3.28125H22.5428L19.7422 0.480648Z" fill="white"/>
<path d="M0 14.4544V26.7698L8.9717 20.0273L0 14.4544Z" fill="white"/>
<path d="M14 18.3066L1.09326 28H26.9066L14 18.3066Z" fill="white"/>
<path d="M28 26.7698V14.454L19.0283 20.0272L28 26.7698Z" fill="white"/>
<path d="M24.6641 14.5705L28 12.5196V8.20312H24.6641V14.5705Z" fill="white"/>
<path d="M3.33594 8.20312H0V12.52L3.33594 14.5707V8.20312Z" fill="white"/>
<path d="M13.4096 12.0686C13.6002 12.228 13.7973 12.3938 14 12.5669C14.1811 12.4138 14.3581 12.2649 14.5303 12.1207C16.1277 10.7796 17.2812 9.75565 17.2812 8.74628C17.2812 7.96923 16.7453 7.38281 16.0348 7.38281C15.2489 7.38281 14.8948 8.21833 14.8051 8.4747L14.6128 9.02344H13.3872L13.1949 8.4747C13.1051 8.21833 12.7511 7.38281 11.9652 7.38281C11.2547 7.38281 10.7188 7.96923 10.7188 8.74628C10.7188 9.70594 11.6415 10.5818 13.4096 12.0686Z" fill="white"/>
<path d="M14 16.2559L17.6215 18.972L23.0234 15.5959V4.92188H18.1016V0H4.97656V15.5959L10.3785 18.972L14 16.2559ZM11.9652 5.74219C12.8352 5.74219 13.5137 6.13233 14 6.66827C14.4863 6.13233 15.1648 5.74219 16.0348 5.74219C17.6538 5.74219 18.9219 7.06158 18.9219 8.74628C18.9219 10.5207 17.4495 11.8115 15.5853 13.3768C14.5091 14.2805 14.612 14.2064 14 14.7322C13.4896 14.2936 13.4033 14.2065 12.3537 13.3239C10.452 11.7249 9.07812 10.515 9.07812 8.74628C9.07812 7.06158 10.3462 5.74219 11.9652 5.74219Z" fill="white"/>
</svg>
