<svg width="54" height="24" viewBox="0 0 54 24" fill="none" xmlns="http://www.w3.org/2000/svg">
<path d="M18.0377 17.0348C17.3889 16.9284 13.929 19.6406 13.929 19.6406C13.929 19.6406 8.19838 26.607 3.11654 22.8845C-4.01967 17.6198 3.33278 12.1424 3.33278 12.1424C-1.31656 9.85567 -0.397502 2.03839 5.00871 0.443032C10.4149 -1.09915 12.3071 1.87886 14.1452 4.48462C15.9293 7.09038 17.8755 6.87766 17.8755 6.87766L36.1485 6.87766C36.1485 6.87766 38.0407 7.09038 39.8788 4.48462C41.7169 1.87886 43.6091 -1.15233 49.0153 0.443032C54.4215 1.98522 55.3946 9.8025 50.6912 12.1424C50.6912 12.1424 57.9896 17.6198 50.9075 22.8845C45.8256 26.6602 40.0951 19.6406 40.0951 19.6406C40.0951 19.6406 36.6351 16.9284 35.9863 17.0348H18.0377Z" fill="white"/>
</svg>
