<svg width="1910" height="930" viewBox="0 0 1910 930" fill="none" xmlns="http://www.w3.org/2000/svg">
<g clip-path="url(#clip0)">
<rect width="1910" height="930" fill="white"/>
<path fill-rule="evenodd" clip-rule="evenodd" d="M871.526 492.992C884.136 498.237 893 510.908 893 525.706C893 545.159 877.58 561 858.559 561H741.441C722.379 561 707 545.198 707 525.706C707 511.229 715.54 498.753 727.749 493.317C727.694 492.356 727.667 491.387 727.667 490.412C727.667 463.122 749.256 441 775.889 441C793.888 441 809.584 451.104 817.868 466.079C822.875 463.579 828.5 462.176 834.444 462.176C852.691 462.176 867.925 475.392 871.526 492.992Z" fill="#FEE3AE"/>
<path fill-rule="evenodd" clip-rule="evenodd" d="M477.718 333.292C490.802 338.667 500 351.655 500 366.824C500 386.763 484 403 464.263 403H342.737C322.958 403 307 386.803 307 366.824C307 351.985 315.861 339.196 328.529 333.625C328.473 332.639 328.444 331.647 328.444 330.647C328.444 302.675 350.847 280 378.481 280C397.158 280 413.444 290.357 422.041 305.706C427.236 303.144 433.073 301.706 439.241 301.706C458.174 301.706 473.981 315.252 477.718 333.292Z" fill="#FEE3AE"/>
<path fill-rule="evenodd" clip-rule="evenodd" d="M1207.22 336.09C1222.94 342.253 1234 357.141 1234 374.529C1234 397.386 1214.77 416 1191.04 416H1044.96C1021.18 416 1002 397.433 1002 374.529C1002 357.519 1012.65 342.859 1027.88 336.472C1027.81 335.343 1027.78 334.205 1027.78 333.059C1027.78 300.994 1054.71 275 1087.93 275C1110.38 275 1129.95 286.873 1140.29 304.468C1146.53 301.531 1153.55 299.882 1160.96 299.882C1183.72 299.882 1202.72 315.411 1207.22 336.09Z" fill="#FEE3AE"/>
<path fill-rule="evenodd" clip-rule="evenodd" d="M1692.26 442.257C1705.61 448.638 1715 464.054 1715 482.059C1715 505.726 1698.67 525 1678.52 525H1554.48C1534.29 525 1518 505.775 1518 482.059C1518 464.445 1527.04 449.266 1539.98 442.652C1539.92 441.483 1539.89 440.304 1539.89 439.118C1539.89 405.916 1562.76 379 1590.96 379C1610.03 379 1626.65 391.294 1635.43 409.513C1640.73 406.471 1646.69 404.765 1652.98 404.765C1672.31 404.765 1688.44 420.844 1692.26 442.257Z" fill="#FEE3AE"/>
<path d="M-19 1052.34H156.945V1075.92H329.692V1091.64H505.637H678.383V1107.37H854.328V1075.92H1027.07V1091.64H1203.02V1115.23H1375.77H1551.71V1068.06H1724.46H1900.4V1091.64V744V806.89H1724.46V751.861H1551.71V830.474H1375.77V854.058H1203.02V751.861H1027.07V759.723H854.328V854.058H678.383V822.613H505.637V775.445H329.692V767.584H156.945V775.445H-19V1052.34Z" fill="#F48E1E" fill-opacity="0.11"/>
<path d="M-9.40308 1052.72H166.542H339.288H515.234H687.98H863.925H1036.67H1212.62H1385.36H1561.31H1734.05H1910V862.306V838.723H1734.05H1561.31V885.89H1385.36H1212.62V862.306H1036.67V846.584H863.925V878.029H687.98V862.306H515.234H339.288V846.584H166.542V823H-9.40308V1052.72Z" fill="#EC6A00" fill-opacity="0.35"/>
</g>
<defs>
<clipPath id="clip0">
<rect width="1910" height="930" fill="white"/>
</clipPath>
</defs>
</svg>
