<svg width="55" height="52" viewBox="0 0 55 52" fill="none" xmlns="http://www.w3.org/2000/svg">
<path d="M52.0812 15.4684H42.7543C41.1448 15.4684 39.8353 16.7787 39.8353 18.3894V29.1262H36.3467C36.5406 28.4213 36.6124 27.5898 36.5653 26.6222V26.6221C36.4895 22.5331 35.7477 19.0869 34.3601 16.3792C33.2826 14.277 32.0253 13.0166 30.9463 12.2632C32.2127 10.9609 32.9449 9.10833 32.9449 6.9717C32.9449 3.12743 29.8788 0 26.1101 0C22.3414 0 19.2752 3.12743 19.2752 6.9717C19.2752 7.41681 19.6359 7.77749 20.0809 7.77749H20.6283C20.5779 8.08154 20.5511 8.39139 20.5511 8.70608C20.5511 11.4153 22.4866 13.6795 25.0456 14.187C24.7774 15.1831 24.6441 16.3578 24.6446 17.6921L22.6352 19.4207L17.7458 19.8162L12.1058 17.9515C11.5889 17.7796 11.0031 17.5853 10.4947 17.9519C9.99382 18.3135 9.99382 18.9464 9.99382 19.1543V23.3481C9.99382 23.7933 10.3545 24.1539 10.7995 24.1539H11.7587L10.2875 29.2384C10.1639 29.6658 10.4101 30.1127 10.8375 30.2364C11.2652 30.3607 11.7117 30.1138 11.8355 29.6864L13.4363 24.1539H15.7267C12.8779 32.8427 14.5034 38.6425 17.0019 44.512H15.5537L9.52159 37.7663L10.7971 33.3592C10.9209 32.9317 10.6747 32.4848 10.2472 32.3612C9.8198 32.2375 9.37303 32.4838 9.24928 32.9112L8.02928 37.1267C4.25597 37.0638 0.880757 39.6657 0.0206263 43.4092C-0.0789542 43.8428 0.191643 44.2752 0.625091 44.3749L1.76882 44.6381C1.47663 47.6734 3.47522 50.5372 6.52322 51.2389C6.9861 51.3456 7.45296 51.3982 7.91659 51.3982C9.06 51.3982 10.1833 51.0776 11.1769 50.4548C12.3429 49.724 13.2118 48.6496 13.6819 47.3799L14.5844 47.5876C14.8533 47.6498 15.1083 47.6813 15.3631 47.5441C15.6002 47.4165 15.7578 47.186 15.8169 46.9259C15.8736 46.6621 15.9168 46.3941 15.9467 46.1235H32.7968C33.3356 49.4742 36.1861 52 39.5904 52C42.9947 52 45.8453 49.4742 46.3841 46.1235H46.999C46.999 46.1235 47.121 46.1249 47.1488 46.1249C47.3792 46.1249 47.712 46.0994 47.9853 45.8213C48.1221 45.6822 48.2826 45.4332 48.2702 45.0378C48.2475 44.2811 48.134 43.5499 47.9402 42.855C48.582 38.9584 47.9645 36.5852 47.0491 34.7279C47.6278 34.3486 48.0115 33.6949 48.0115 32.9523V30.7377H52.081C53.6905 30.7377 55 29.4273 55 27.8166V18.3893C55.0002 16.7787 53.6908 15.4684 52.0812 15.4684ZM10.3212 49.0895C9.28988 49.7359 8.06956 49.9415 6.88491 49.6687C4.70445 49.1667 3.24963 47.167 3.35566 45.0047L12.0948 47.0163C11.7332 47.8678 11.1214 48.588 10.3212 49.0895ZM14.3526 45.8807L1.82016 42.9964C2.78729 40.3476 5.38991 38.5942 8.23478 38.7451L14.3741 45.6105C14.3687 45.7011 14.3616 45.7911 14.3526 45.8807ZM26.5219 31.839C26.2881 32.4559 26.2881 33.2165 26.2881 34.2693V37.31H23.3379V33.1384C23.3379 28.422 25.9116 27.5816 27.0666 27.4428H34.9652C34.9334 28.5133 34.6919 29.2741 34.2334 29.7571C33.6991 30.3198 32.7849 30.594 31.4382 30.5953L28.5463 30.5983C27.515 30.5984 26.834 31.0157 26.5219 31.839ZM26.2881 38.9215V40.8455C26.2808 40.8455 26.2732 40.8455 26.2655 40.8455H20.5428C20.6071 40.2488 20.793 39.787 21.0982 39.4675C21.5521 38.9924 22.1915 38.9215 22.5323 38.9215H26.2881ZM34.9296 25.8314H27.6027C27.3085 24.9054 27.0461 23.8914 26.8304 22.8492L29.0581 21.4031C30.2741 20.6133 30.9067 19.4973 30.7937 18.3412C30.6936 17.3163 29.9969 16.4008 29.019 16.009C28.1258 15.6512 27.1645 15.7636 26.3149 16.3069C26.385 15.5362 26.5154 14.8481 26.704 14.2641C27.0474 14.2286 27.3885 14.1615 27.7234 14.063C28.4053 13.9046 29.0353 13.6522 29.6041 13.3176C31.1558 14.2448 34.5686 17.2522 34.9296 25.8314ZM20.9455 6.16601C21.3255 3.59135 23.4967 1.61169 26.1101 1.61169C28.9903 1.61169 31.3336 4.01627 31.3336 6.9718C31.3336 9.37564 30.181 11.3131 28.3226 12.1657V7.92586C28.3226 7.19173 28.0417 6.29118 26.7039 6.16934C26.6796 6.16709 26.6552 6.16601 26.6308 6.16601H20.9455ZM22.1625 8.70619C22.1625 8.38817 22.1987 8.07756 22.2699 7.77759H26.5913C26.6411 7.78297 26.6774 7.78877 26.7034 7.79403C26.7075 7.8239 26.7112 7.86688 26.7112 7.92586V12.6398C26.5192 12.6681 26.3261 12.6824 26.1331 12.6825C26.1312 12.6825 26.1294 12.6825 26.1277 12.6825C23.941 12.6805 22.1625 10.8975 22.1625 8.70619ZM21.118 21.1605L23.0263 21.0061C23.1963 20.9924 23.3576 20.9251 23.487 20.8139L26.931 17.8513L26.9315 17.8507C27.2645 17.5638 27.62 17.4166 27.9661 17.4166C28.1202 17.4166 28.2724 17.4458 28.4199 17.5049C28.8456 17.6754 29.1479 18.0652 29.1902 18.4977C29.2434 19.0421 28.8848 19.5939 28.1808 20.0512L24.3432 22.5425H21.1183V21.1605H21.118ZM17.7132 21.436L19.5067 21.2909V22.5427H17.4226C17.1524 22.5427 17.0866 22.3181 17.0789 22.1298C17.0745 22.023 17.0846 21.4875 17.7132 21.436ZM15.8063 20.8796C15.5637 21.2776 15.4503 21.7431 15.4689 22.1958C15.4738 22.313 15.4887 22.4259 15.5095 22.5359C15.5095 22.5382 15.5082 22.5404 15.5087 22.5426H11.6054V19.4835L15.8094 20.8734C15.8082 20.8756 15.8075 20.8776 15.8063 20.8796ZM17.4271 24.1542H24.5816C24.7372 24.1542 24.8896 24.109 25.0202 24.0243L25.3849 23.7875C25.5603 24.563 25.7601 25.3176 25.9777 26.0304C24.3346 26.5154 21.7265 28.0831 21.7265 33.1383V37.3908C21.1612 37.5049 20.4925 37.7686 19.9332 38.354C19.3435 38.9711 19.0068 39.8073 18.926 40.8454H17.3007C15.6629 36.1248 15.0401 31.1013 17.4271 24.1542ZM18.7551 44.5093C18.4573 43.8243 18.1703 43.142 17.9 42.4571H26.2654C27.3496 42.4571 27.8993 41.9634 27.8993 40.9899V35.075H34.2586C34.7036 35.075 35.0643 34.7143 35.0643 34.2692C35.0643 33.8241 34.7036 33.4634 34.2586 33.4634H27.9051C27.9154 33.0057 27.9447 32.6314 28.0286 32.4103C28.0693 32.3027 28.1046 32.2099 28.547 32.2099L31.4397 32.2069C33.2514 32.2052 34.5474 31.7668 35.402 30.8667C35.4415 30.825 35.4789 30.7813 35.5164 30.7378H46.4005V32.9524C46.4005 33.2294 46.1671 33.4634 45.8908 33.4634H37.8701C37.4251 33.4634 37.0645 33.8241 37.0645 34.2692C37.0645 34.7143 37.4251 35.075 37.8701 35.075H45.4174C46.0542 36.2571 46.627 37.7281 46.5929 40.0521C44.999 37.8377 42.4186 36.4138 39.49 36.4138C37.1381 36.4138 34.9313 37.3364 33.2758 39.012C31.8068 40.4986 30.9245 42.4281 30.743 44.512L18.7551 44.5093ZM39.5905 50.3886C37.0719 50.3886 34.9477 48.5737 34.4338 46.1237H44.7472C44.2332 48.5735 42.109 50.3886 39.5905 50.3886ZM32.3613 44.5122C32.7568 40.8686 35.8029 38.0253 39.49 38.0253C42.7272 38.0253 45.4458 40.1603 46.3461 43.1489C46.349 43.1583 46.3519 43.1678 46.3551 43.1771C46.4824 43.6059 46.5723 44.0522 46.621 44.5122H32.3613ZM53.3889 27.8167C53.3889 28.5388 52.8022 29.1262 52.0812 29.1262H41.4466V24.965H53.3889V27.8167ZM53.3889 23.3534H41.4466V21.6397H53.3889V23.3534ZM53.3889 20.0281H41.4466V18.3894C41.4466 17.6673 42.0333 17.08 42.7543 17.08H52.0812C52.8022 17.08 53.3889 17.6674 53.3889 18.3894V20.0281Z" fill="black"/>
</svg>
